# xmcd
#
# Track frame offsets: 
#        150
#        15172
#        27875
#        41915
#        56389
#        71036
#        84164
#        98221
#        111604
#        122557
#        134155
#        146716
#        161907
#        173650
#        186638
#        198587
#        209837
#        220800
#        233791
#        250071
#        262201
#
# Disc length: 3675 seconds
#
# Revision: 1
# Processed by: cddbd v1.5.2PL0 Copyright (c) Steve Scherf et al.
# Submitted via: ExactAudioCopy v0.99pb4
#
DISCID=470e5915
DTITLE=Sidney Bechet - Maple Leaf Rag - CD1
DYEAR=1900
DGENRE=Jazz
TTITLE0=Basement Blues
TTITLE1=Sweetie Dear
TTITLE2=I Want You Tonight
TTITLE3=I've Found A New Baby
TTITLE4=Lay Your Racket
TTITLE5=Maple Leaf Rag
TTITLE6=Shag
TTITLE7=Loveless Love
TTITLE8=You Can't Live in Harlim
TTITLE9=Dearf Old Southland
TTITLE10=Blackstick
TTITLE11=Freight Train Blues
TTITLE12=Uncle Joe
TTITLE13=What A Dream
TTITLE14=Hold Tight (Want Some Sead Food Mama)
TTITLE15=Jungle Drums
TTITLE16=Chant In The Nicht
TTITLE17=Ja Da
TTITLE18=Really The Blues
TTITLE19=When You And I Were Young, Maggie
TTITLE20=Weary Blues
EXTD=
EXTT0=
EXTT1=
EXTT2=
EXTT3=
EXTT4=
EXTT5=
EXTT6=
EXTT7=
EXTT8=
EXTT9=
EXTT10=
EXTT11=
EXTT12=
EXTT13=
EXTT14=
EXTT15=
EXTT16=
EXTT17=
EXTT18=
EXTT19=
EXTT20=
PLAYORDER=
